<svg version="1.2" xmlns="http://www.w3.org/2000/svg" viewBox="0 0 2000 1000" width="2000" height="1000">
	<title>507311-PIJUKT-398-ai</title>
	<defs>
		<clipPath clipPathUnits="userSpaceOnUse" id="cp1">
			<path d="m0 0h2000v1000h-2000z"/>
		</clipPath>
	</defs>
	<style>
		.s0 { fill: #55cab0 } 
		.s1 { opacity: .1;mix-blend-mode: multiply;fill: #002474 } 
		.s2 { fill: #ffffd8 } 
		.s3 { fill: #faff7c } 
	</style>
	<g id="BACKGROUND">
		<path id="&lt;Path&gt;" class="s0" d="m0 0h2000v1000h-2000z"/>
		<g id="&lt;Clip Group&gt;" clip-path="url(#cp1)">
			<g id="bolas">
				<path id="&lt;Path&gt;" class="s1" d="m827.5 803c0 58-47 105-105 105-58 0-105-47-105-105 0-58 47-105 105-105 58 0 105 47 105 105z"/>
				<path id="&lt;Path&gt; copy" class="s1" d="m463.5 677c0 58-47 105-105 105-58 0-105-47-105-105 0-58 47-105 105-105 58 0 105 47 105 105z"/>
				<path id="&lt;Path&gt;" class="s1" d="m1402.7 182c0 39.3-31.9 71.2-71.2 71.2-39.3 0-71.2-31.9-71.2-71.2 0-39.3 31.9-71.2 71.2-71.2 39.3 0 71.2 31.9 71.2 71.2z"/>
				<path id="&lt;Path&gt; copy 4" class="s1" d="m1795.2 903.4c-39.4 0-71.2-31.8-71.2-71.2 0-39.4 31.8-71.2 71.2-71.2 39.4 0 71.2 31.8 71.2 71.2 0 39.4-31.8 71.2-71.2 71.2z"/>
				<path id="&lt;Path&gt; copy 2" class="s1" d="m1846.7 471c0 39.3-31.9 71.2-71.2 71.2-39.3 0-71.2-31.9-71.2-71.2 0-39.3 31.9-71.2 71.2-71.2 39.3 0 71.2 31.9 71.2 71.2z"/>
				<path id="&lt;Path&gt;" class="s1" d="m1103.3 779c0 31.4-25.4 56.8-56.8 56.8-31.3 0-56.8-25.4-56.8-56.8 0-31.4 25.5-56.8 56.8-56.8 31.4 0 56.8 25.4 56.8 56.8z"/>
				<path id="&lt;Path&gt;" class="s1" d="m853.3 355c0 31.4-25.4 56.8-56.8 56.8-31.3 0-56.8-25.4-56.8-56.8 0-31.4 25.5-56.8 56.8-56.8 31.4 0 56.8 25.4 56.8 56.8z"/>
				<path id="&lt;Path&gt; copy 3" class="s1" d="m261.3 163c0 31.4-25.4 56.8-56.8 56.8-31.3 0-56.8-25.4-56.8-56.8 0-31.4 25.5-56.8 56.8-56.8 31.4 0 56.8 25.4 56.8 56.8z"/>
				<path id="&lt;Path&gt;" class="s1" d="m763.3 112c0 31.4-25.4 56.8-56.8 56.8-31.3 0-56.8-25.4-56.8-56.8 0-31.4 25.5-56.8 56.8-56.8 31.4 0 56.8 25.4 56.8 56.8z"/>
				<path id="&lt;Path&gt; copy 5" class="s1" d="m174.3 890c0 31.4-25.4 56.8-56.8 56.8-31.3 0-56.8-25.4-56.8-56.8 0-31.4 25.5-56.8 56.8-56.8 31.4 0 56.8 25.4 56.8 56.8z"/>
				<path id="&lt;Path&gt;" class="s1" d="m1432.7 626.7c0 37.6-30.5 68-68.1 68-37.6 0-68-30.4-68-68 0-37.6 30.4-68.1 68-68.1 37.6 0 68.1 30.5 68.1 68.1z"/>
			</g>
			<g id="losangos">
				<path id="&lt;Path&gt;" class="s2" d="m985.3 356.6c0-15.1-12.2-27.3-27.3-27.3 15.1 0 27.3-12.2 27.3-27.3 0 15.1 12.2 27.3 27.3 27.3-15.1 0-27.3 12.2-27.3 27.3z"/>
				<path id="&lt;Path&gt; copy 10" class="s2" d="m181.5 628c0-15.1-12.2-27.3-27.3-27.3 15.1 0 27.3-12.3 27.3-27.3 0 15 12.2 27.3 27.3 27.3-15.1 0-27.3 12.2-27.3 27.3z"/>
				<path id="&lt;Path&gt;" class="s2" d="m646.8 502.3c0-15.1-12.2-27.3-27.3-27.3 15.1 0 27.3-12.2 27.3-27.3 0 15.1 12.2 27.3 27.3 27.3-15.1 0-27.3 12.2-27.3 27.3z"/>
				<path id="&lt;Path&gt;" class="s2" d="m760.2 761.7c0 9 7.3 16.3 16.2 16.3-8.9 0-16.2 7.3-16.2 16.3 0-9-7.3-16.3-16.3-16.3 9 0 16.3-7.3 16.3-16.3z"/>
				<path id="&lt;Path&gt;" class="s2" d="m827.3 161c0 9 7.2 16.3 16.2 16.3-9 0-16.2 7.2-16.2 16.2 0-9-7.3-16.2-16.3-16.2 9 0 16.3-7.3 16.3-16.3z"/>
				<path id="&lt;Path&gt;" class="s2" d="m296.3 245c0 9 7.2 16.3 16.2 16.3-9 0-16.2 7.2-16.2 16.2 0-9-7.3-16.2-16.3-16.2 9 0 16.3-7.3 16.3-16.3z"/>
				<path id="&lt;Path&gt; copy 7" class="s2" d="m1589.5 36.1c0 9 7.3 16.3 16.3 16.3-9 0-16.3 7.3-16.3 16.3 0-9-7.2-16.3-16.2-16.3 9 0 16.2-7.3 16.2-16.3z"/>
				<path id="&lt;Path&gt; copy 6" class="s2" d="m339.5 56.1c0 9 7.3 16.3 16.3 16.3-9 0-16.3 7.3-16.3 16.3 0-9-7.2-16.3-16.2-16.3 9 0 16.2-7.3 16.2-16.3z"/>
				<path id="&lt;Path&gt;" class="s2" d="m1343.8 297.7c0 9 7.3 16.3 16.3 16.3-9 0-16.3 7.2-16.3 16.2 0-9-7.2-16.2-16.2-16.2 9 0 16.2-7.3 16.2-16.3z"/>
				<path id="&lt;Path&gt;" class="s2" d="m1597.3 867.5c0-23.3-19-42.2-42.3-42.2 23.3 0 42.3-19 42.3-42.3 0 23.3 18.9 42.3 42.2 42.3-23.3 0-42.2 18.9-42.2 42.2z"/>
				<path id="&lt;Path&gt; copy 8" class="s2" d="m391.5 918.3c0-23.4-18.9-42.3-42.2-42.3 23.3 0 42.2-18.9 42.2-42.3 0 23.4 18.9 42.3 42.3 42.3-23.4 0-42.3 18.9-42.3 42.3z"/>
				<path id="&lt;Path&gt; copy 9" class="s2" d="m1601.5 318.3c0-23.4-18.9-42.3-42.2-42.3 23.3 0 42.2-18.9 42.2-42.3 0 23.4 18.9 42.3 42.3 42.3-23.4 0-42.3 18.9-42.3 42.3z"/>
			</g>
			<g id="brilhos">
				<g id="&lt;Group&gt;">
					<g id="&lt;Group&gt;">
						<path id="&lt;Path&gt;" class="s3" d="m706 663.1l-2.7-1.5 8.9-16 2.7 1.5z"/>
						<path id="&lt;Path&gt;" class="s3" d="m659.7 746.7l-2.7-1.5 8.9-16 2.6 1.5z"/>
					</g>
					<g id="&lt;Group&gt;">
						<path id="&lt;Path&gt;" class="s3" d="m719 716.2l1.5-2.7 16 8.9-1.5 2.7z"/>
						<path id="&lt;Path&gt;" class="s3" d="m635.4 669.9l1.5-2.7 16 8.9-1.5 2.6z"/>
					</g>
					<g id="&lt;Group&gt;">
						<path id="&lt;Path&gt;" class="s3" d="m723.5 687l-0.9-3 17.6-5 0.9 2.9z"/>
						<path id="&lt;Path&gt;" class="s3" d="m631.6 713.3l-0.8-2.9 17.6-5.1 0.8 3z"/>
					</g>
					<g id="&lt;Group&gt;">
						<path id="&lt;Path&gt;" class="s3" d="m695.1 733.7l2.9-0.8 5.1 17.5-2.9 0.9z"/>
						<path id="&lt;Path&gt;" class="s3" d="m668.8 641.8l2.9-0.8 5 17.6-2.9 0.8z"/>
					</g>
				</g>
				<g id="&lt;Group&gt;">
					<g id="&lt;Group&gt;">
						<path id="&lt;Path&gt;" class="s3" d="m716.7 672.7l-1.9-2.3 14.1-11.6 1.9 2.3z"/>
						<path id="&lt;Path&gt;" class="s3" d="m643 733.5l-2-2.3 14.1-11.7 2 2.4z"/>
					</g>
					<g id="&lt;Group&gt;">
						<path id="&lt;Path&gt;" class="s3" d="m709.3 726.9l2.4-1.9 11.6 14.1-2.3 1.9z"/>
						<path id="&lt;Path&gt;" class="s3" d="m648.5 653.2l2.4-2 11.6 14.2-2.3 1.9z"/>
					</g>
					<g id="&lt;Group&gt;">
						<path id="&lt;Path&gt;" class="s3" d="m724.2 701.4l0.3-3.1 18.2 1.8-0.3 3z"/>
						<path id="&lt;Path&gt;" class="s3" d="m629.1 692.2l0.3-3 18.2 1.7-0.3 3z"/>
					</g>
					<g id="&lt;Group&gt;">
						<path id="&lt;Path&gt;" class="s3" d="m680.7 734.4l3 0.3-1.7 18.2-3.1-0.2z"/>
						<path id="&lt;Path&gt;" class="s3" d="m689.9 639.3l3 0.3-1.7 18.2-3.1-0.3z"/>
					</g>
				</g>
			</g>
			<g id="brilhos copy 2">
				<g id="&lt;Group&gt;">
					<g id="&lt;Group&gt;">
						<path id="&lt;Path&gt;" class="s3" d="m186 343.1l-2.7-1.5 8.9-16 2.7 1.5z"/>
						<path id="&lt;Path&gt;" class="s3" d="m139.7 426.7l-2.7-1.5 8.9-16 2.6 1.5z"/>
					</g>
					<g id="&lt;Group&gt;">
						<path id="&lt;Path&gt;" class="s3" d="m199 396.2l1.5-2.7 16 8.9-1.5 2.7z"/>
						<path id="&lt;Path&gt;" class="s3" d="m115.4 349.9l1.5-2.7 16 8.9-1.5 2.6z"/>
					</g>
					<g id="&lt;Group&gt;">
						<path id="&lt;Path&gt;" class="s3" d="m203.5 367l-0.9-3 17.6-5 0.9 2.9z"/>
						<path id="&lt;Path&gt;" class="s3" d="m111.6 393.3l-0.8-2.9 17.6-5.1 0.8 3z"/>
					</g>
					<g id="&lt;Group&gt;">
						<path id="&lt;Path&gt;" class="s3" d="m175.1 413.7l2.9-0.8 5.1 17.5-2.9 0.9z"/>
						<path id="&lt;Path&gt;" class="s3" d="m148.8 321.8l2.9-0.8 5 17.6-2.9 0.8z"/>
					</g>
				</g>
				<g id="&lt;Group&gt;">
					<g id="&lt;Group&gt;">
						<path id="&lt;Path&gt;" class="s3" d="m196.7 352.7l-1.9-2.3 14.1-11.6 1.9 2.3z"/>
						<path id="&lt;Path&gt;" class="s3" d="m123 413.5l-2-2.3 14.1-11.7 2 2.4z"/>
					</g>
					<g id="&lt;Group&gt;">
						<path id="&lt;Path&gt;" class="s3" d="m189.3 406.9l2.4-1.9 11.6 14.1-2.3 1.9z"/>
						<path id="&lt;Path&gt;" class="s3" d="m128.5 333.2l2.4-2 11.6 14.2-2.3 1.9z"/>
					</g>
					<g id="&lt;Group&gt;">
						<path id="&lt;Path&gt;" class="s3" d="m204.2 381.4l0.3-3.1 18.2 1.8-0.3 3z"/>
						<path id="&lt;Path&gt;" class="s3" d="m109.1 372.2l0.3-3 18.2 1.7-0.3 3z"/>
					</g>
					<g id="&lt;Group&gt;">
						<path id="&lt;Path&gt;" class="s3" d="m160.7 414.4l3 0.3-1.7 18.2-3.1-0.2z"/>
						<path id="&lt;Path&gt;" class="s3" d="m169.9 319.3l3 0.3-1.7 18.2-3.1-0.3z"/>
					</g>
				</g>
			</g>
			<g id="brilhos">
				<g id="&lt;Group&gt;">
					<g id="&lt;Group&gt;">
						<path id="&lt;Path&gt;" class="s3" d="m1131.2 145.1l-2.3-1.3 7.6-13.7 2.3 1.2z"/>
						<path id="&lt;Path&gt;" class="s3" d="m1091.4 216.8l-2.3-1.3 7.6-13.7 2.3 1.2z"/>
					</g>
					<g id="&lt;Group&gt;">
						<path id="&lt;Path&gt;" class="s3" d="m1142.3 190.6l1.3-2.3 13.7 7.7-1.2 2.2z"/>
						<path id="&lt;Path&gt;" class="s3" d="m1070.6 150.9l1.3-2.3 13.7 7.6-1.3 2.3z"/>
					</g>
					<g id="&lt;Group&gt;">
						<path id="&lt;Path&gt;" class="s3" d="m1146.2 165.5l-0.7-2.5 15.1-4.3 0.7 2.5z"/>
						<path id="&lt;Path&gt;" class="s3" d="m1067.4 188.1l-0.8-2.5 15.1-4.3 0.8 2.5z"/>
					</g>
					<g id="&lt;Group&gt;">
						<path id="&lt;Path&gt;" class="s3" d="m1121.8 205.6l2.6-0.7 4.3 15.1-2.5 0.7z"/>
						<path id="&lt;Path&gt;" class="s3" d="m1099.2 126.8l2.5-0.7 4.4 15.1-2.5 0.7z"/>
					</g>
				</g>
				<g id="&lt;Group&gt;">
					<g id="&lt;Group&gt;">
						<path id="&lt;Path&gt;" class="s3" d="m1140.4 153.3l-1.7-2 12.1-10 1.7 2.1z"/>
						<path id="&lt;Path&gt;" class="s3" d="m1077.1 205.5l-1.7-2 12.1-10 1.7 2z"/>
					</g>
					<g id="&lt;Group&gt;">
						<path id="&lt;Path&gt;" class="s3" d="m1134 199.8l2.1-1.6 9.9 12.1-2 1.6z"/>
						<path id="&lt;Path&gt;" class="s3" d="m1081.9 136.6l2-1.7 10 12.1-2 1.7z"/>
					</g>
					<g id="&lt;Group&gt;">
						<path id="&lt;Path&gt;" class="s3" d="m1146.8 177.9l0.3-2.6 15.6 1.5-0.2 2.6z"/>
						<path id="&lt;Path&gt;" class="s3" d="m1065.2 170l0.3-2.6 15.6 1.5-0.3 2.6z"/>
					</g>
					<g id="&lt;Group&gt;">
						<path id="&lt;Path&gt;" class="s3" d="m1109.5 206.3l2.6 0.2-1.5 15.7-2.6-0.3z"/>
						<path id="&lt;Path&gt;" class="s3" d="m1117.3 124.7l2.6 0.2-1.5 15.6-2.6-0.2z"/>
					</g>
				</g>
			</g>
			<g id="brilhos">
				<g id="&lt;Group&gt;">
					<g id="&lt;Group&gt;">
						<path id="&lt;Path&gt;" class="s3" d="m1382.9 451.6l-1.8-1.1 6.1-11 1.8 1z"/>
						<path id="&lt;Path&gt;" class="s3" d="m1351 509.1l-1.8-1 6.1-11 1.8 1z"/>
					</g>
					<g id="&lt;Group&gt;">
						<path id="&lt;Path&gt;" class="s3" d="m1391.8 488.1l1.1-1.8 11 6.1-1 1.8z"/>
						<path id="&lt;Path&gt;" class="s3" d="m1334.3 456.2l1-1.8 11 6.1-1 1.8z"/>
					</g>
					<g id="&lt;Group&gt;">
						<path id="&lt;Path&gt;" class="s3" d="m1394.9 468l-0.5-2 12.1-3.5 0.5 2z"/>
						<path id="&lt;Path&gt;" class="s3" d="m1331.7 486.1l-0.6-2 12.1-3.5 0.6 2z"/>
					</g>
					<g id="&lt;Group&gt;">
						<path id="&lt;Path&gt;" class="s3" d="m1375.4 500.2l2-0.6 3.5 12.1-2 0.6z"/>
						<path id="&lt;Path&gt;" class="s3" d="m1357.3 436.9l2-0.5 3.5 12.1-2 0.5z"/>
					</g>
				</g>
				<g id="&lt;Group&gt;">
					<g id="&lt;Group&gt;">
						<path id="&lt;Path&gt;" class="s3" d="m1390.3 458.2l-1.3-1.6 9.7-8 1.3 1.6z"/>
						<path id="&lt;Path&gt;" class="s3" d="m1339.5 500l-1.3-1.6 9.7-8 1.3 1.6z"/>
					</g>
					<g id="&lt;Group&gt;">
						<path id="&lt;Path&gt;" class="s3" d="m1385.2 495.5l1.6-1.3 8 9.7-1.6 1.3z"/>
						<path id="&lt;Path&gt;" class="s3" d="m1343.4 444.7l1.6-1.3 8 9.7-1.6 1.4z"/>
					</g>
					<g id="&lt;Group&gt;">
						<path id="&lt;Path&gt;" class="s3" d="m1395.5 477.9l0.2-2.1 12.5 1.2-0.2 2.1z"/>
						<path id="&lt;Path&gt;" class="s3" d="m1330 471.6l0.2-2.1 12.5 1.2-0.2 2.1z"/>
					</g>
					<g id="&lt;Group&gt;">
						<path id="&lt;Path&gt;" class="s3" d="m1365.5 500.7l2.1 0.2-1.2 12.5-2.1-0.2z"/>
						<path id="&lt;Path&gt;" class="s3" d="m1371.8 435.2l2.1 0.2-1.2 12.5-2.1-0.2z"/>
					</g>
				</g>
			</g>
			<g id="brilhos copy 4">
				<g id="&lt;Group&gt;">
					<g id="&lt;Group&gt;">
						<path id="&lt;Path&gt;" class="s3" d="m502.9 221.6l-1.8-1.1 6.1-11 1.8 1z"/>
						<path id="&lt;Path&gt;" class="s3" d="m471 279.1l-1.8-1 6.1-11 1.8 1z"/>
					</g>
					<g id="&lt;Group&gt;">
						<path id="&lt;Path&gt;" class="s3" d="m511.8 258.1l1.1-1.8 11 6.1-1 1.8z"/>
						<path id="&lt;Path&gt;" class="s3" d="m454.3 226.2l1-1.8 11 6.1-1 1.8z"/>
					</g>
					<g id="&lt;Group&gt;">
						<path id="&lt;Path&gt;" class="s3" d="m514.9 238l-0.5-2 12.1-3.5 0.5 2z"/>
						<path id="&lt;Path&gt;" class="s3" d="m451.7 256.1l-0.6-2 12.1-3.5 0.6 2z"/>
					</g>
					<g id="&lt;Group&gt;">
						<path id="&lt;Path&gt;" class="s3" d="m495.4 270.2l2-0.6 3.5 12.1-2 0.6z"/>
						<path id="&lt;Path&gt;" class="s3" d="m477.3 206.9l2-0.5 3.5 12.1-2 0.5z"/>
					</g>
				</g>
				<g id="&lt;Group&gt;">
					<g id="&lt;Group&gt;">
						<path id="&lt;Path&gt;" class="s3" d="m510.3 228.2l-1.3-1.6 9.7-8 1.3 1.6z"/>
						<path id="&lt;Path&gt;" class="s3" d="m459.5 270l-1.3-1.6 9.7-8 1.3 1.6z"/>
					</g>
					<g id="&lt;Group&gt;">
						<path id="&lt;Path&gt;" class="s3" d="m505.2 265.5l1.6-1.3 8 9.7-1.6 1.3z"/>
						<path id="&lt;Path&gt;" class="s3" d="m463.4 214.7l1.6-1.3 8 9.7-1.6 1.4z"/>
					</g>
					<g id="&lt;Group&gt;">
						<path id="&lt;Path&gt;" class="s3" d="m515.5 247.9l0.2-2.1 12.5 1.2-0.2 2.1z"/>
						<path id="&lt;Path&gt;" class="s3" d="m450 241.6l0.2-2.1 12.5 1.2-0.2 2.1z"/>
					</g>
					<g id="&lt;Group&gt;">
						<path id="&lt;Path&gt;" class="s3" d="m485.5 270.7l2.1 0.2-1.2 12.5-2.1-0.2z"/>
						<path id="&lt;Path&gt;" class="s3" d="m491.8 205.2l2.1 0.2-1.2 12.5-2.1-0.2z"/>
					</g>
				</g>
			</g>
			<g id="brilhos copy">
				<g id="&lt;Group&gt;">
					<g id="&lt;Group&gt;">
						<path id="&lt;Path&gt;" class="s3" d="m1852.9 171.6l-1.8-1.1 6.1-11 1.8 1z"/>
						<path id="&lt;Path&gt;" class="s3" d="m1821 229.1l-1.8-1 6.1-11 1.8 1z"/>
					</g>
					<g id="&lt;Group&gt;">
						<path id="&lt;Path&gt;" class="s3" d="m1861.8 208.1l1.1-1.8 11 6.1-1 1.8z"/>
						<path id="&lt;Path&gt;" class="s3" d="m1804.3 176.2l1-1.8 11 6.1-1 1.8z"/>
					</g>
					<g id="&lt;Group&gt;">
						<path id="&lt;Path&gt;" class="s3" d="m1864.9 188l-0.5-2 12.1-3.5 0.5 2z"/>
						<path id="&lt;Path&gt;" class="s3" d="m1801.7 206.1l-0.6-2 12.1-3.5 0.6 2z"/>
					</g>
					<g id="&lt;Group&gt;">
						<path id="&lt;Path&gt;" class="s3" d="m1845.4 220.2l2-0.6 3.5 12.1-2 0.6z"/>
						<path id="&lt;Path&gt;" class="s3" d="m1827.3 156.9l2-0.5 3.5 12.1-2 0.5z"/>
					</g>
				</g>
				<g id="&lt;Group&gt;">
					<g id="&lt;Group&gt;">
						<path id="&lt;Path&gt;" class="s3" d="m1860.3 178.2l-1.3-1.6 9.7-8 1.3 1.6z"/>
						<path id="&lt;Path&gt;" class="s3" d="m1809.5 220l-1.3-1.6 9.7-8 1.3 1.6z"/>
					</g>
					<g id="&lt;Group&gt;">
						<path id="&lt;Path&gt;" class="s3" d="m1855.2 215.5l1.6-1.3 8 9.7-1.6 1.3z"/>
						<path id="&lt;Path&gt;" class="s3" d="m1813.4 164.7l1.6-1.3 8 9.7-1.6 1.4z"/>
					</g>
					<g id="&lt;Group&gt;">
						<path id="&lt;Path&gt;" class="s3" d="m1865.5 197.9l0.2-2.1 12.5 1.2-0.2 2.1z"/>
						<path id="&lt;Path&gt;" class="s3" d="m1800 191.6l0.2-2.1 12.5 1.2-0.2 2.1z"/>
					</g>
					<g id="&lt;Group&gt;">
						<path id="&lt;Path&gt;" class="s3" d="m1835.5 220.7l2.1 0.2-1.2 12.5-2.1-0.2z"/>
						<path id="&lt;Path&gt;" class="s3" d="m1841.8 155.2l2.1 0.2-1.2 12.5-2.1-0.2z"/>
					</g>
				</g>
			</g>
			<g id="brilhos copy 3">
				<g id="&lt;Group&gt;">
					<g id="&lt;Group&gt;">
						<path id="&lt;Path&gt;" class="s3" d="m1652.9 631.6l-1.8-1.1 6.1-11 1.8 1z"/>
						<path id="&lt;Path&gt;" class="s3" d="m1621 689.1l-1.8-1 6.1-11 1.8 1z"/>
					</g>
					<g id="&lt;Group&gt;">
						<path id="&lt;Path&gt;" class="s3" d="m1661.8 668.1l1.1-1.8 11 6.1-1 1.8z"/>
						<path id="&lt;Path&gt;" class="s3" d="m1604.3 636.2l1-1.8 11 6.1-1 1.8z"/>
					</g>
					<g id="&lt;Group&gt;">
						<path id="&lt;Path&gt;" class="s3" d="m1664.9 648l-0.5-2 12.1-3.5 0.5 2z"/>
						<path id="&lt;Path&gt;" class="s3" d="m1601.7 666.1l-0.6-2 12.1-3.5 0.6 2z"/>
					</g>
					<g id="&lt;Group&gt;">
						<path id="&lt;Path&gt;" class="s3" d="m1645.4 680.2l2-0.6 3.5 12.1-2 0.6z"/>
						<path id="&lt;Path&gt;" class="s3" d="m1627.3 616.9l2-0.5 3.5 12.1-2 0.5z"/>
					</g>
				</g>
				<g id="&lt;Group&gt;">
					<g id="&lt;Group&gt;">
						<path id="&lt;Path&gt;" class="s3" d="m1660.3 638.2l-1.3-1.6 9.7-8 1.3 1.6z"/>
						<path id="&lt;Path&gt;" class="s3" d="m1609.5 680l-1.3-1.6 9.7-8 1.3 1.6z"/>
					</g>
					<g id="&lt;Group&gt;">
						<path id="&lt;Path&gt;" class="s3" d="m1655.2 675.5l1.6-1.3 8 9.7-1.6 1.3z"/>
						<path id="&lt;Path&gt;" class="s3" d="m1613.4 624.7l1.6-1.3 8 9.7-1.6 1.4z"/>
					</g>
					<g id="&lt;Group&gt;">
						<path id="&lt;Path&gt;" class="s3" d="m1665.5 657.9l0.2-2.1 12.5 1.2-0.2 2.1z"/>
						<path id="&lt;Path&gt;" class="s3" d="m1600 651.6l0.2-2.1 12.5 1.2-0.2 2.1z"/>
					</g>
					<g id="&lt;Group&gt;">
						<path id="&lt;Path&gt;" class="s3" d="m1635.5 680.7l2.1 0.2-1.2 12.5-2.1-0.2z"/>
						<path id="&lt;Path&gt;" class="s3" d="m1641.8 615.2l2.1 0.2-1.2 12.5-2.1-0.2z"/>
					</g>
				</g>
			</g>
		</g>
	</g>
</svg>