<svg version="1.2" xmlns="http://www.w3.org/2000/svg" viewBox="0 0 200 200" width="200" height="200">
	<title>Novo Projeto</title>
	<style>
		.s0 { fill: #d28125 } 
		.s1 { fill: #ffda6f } 
		.s2 { fill: #d58b28 } 
		.s3 { fill: #ffffff } 
		.s4 { fill: #e2a13b } 
		.s5 { fill: #a35201 } 
	</style>
	<path id="Camada 1" class="s0" d="m99.5 196.9c-51.1 0-92.4-41.3-92.4-92.4 0-51.1 41.3-92.4 92.4-92.4 51.1 0 92.4 41.3 92.4 92.4 0 51.1-41.3 92.4-92.4 92.4z"/>
	<path id="Camada 1 copy" class="s1" d="m99.5 187.9c-51.1 0-92.4-41.3-92.4-92.4 0-51.1 41.3-92.4 92.4-92.4 51.1 0 92.4 41.3 92.4 92.4 0 51.1-41.3 92.4-92.4 92.4z"/>
	<path id="Camada 1 copy 2" class="s2" d="m99.5 163.8c-39.1 0-70.7-31.6-70.7-70.7 0-39.1 31.6-70.7 70.7-70.7 39.1 0 70.7 31.6 70.7 70.7 0 39.1-31.6 70.7-70.7 70.7z"/>
	<path id="Camada 1 copy 3" class="s3" d="m99.5 168.6c-39.1 0-70.7-31.6-70.7-70.7 0-39.1 31.6-70.7 70.7-70.7 39.1 0 70.7 31.6 70.7 70.7 0 39.1-31.6 70.7-70.7 70.7z"/>
	<path id="Camada 1 copy 4" class="s4" d="m99.5 167.4c-39.1 0-70.7-31.6-70.7-70.7 0-39.1 31.6-70.7 70.7-70.7 39.1 0 70.7 31.6 70.7 70.7 0 39.1-31.6 70.7-70.7 70.7z"/>
	<path id="Camada 1" class="s5" d="m97 149.2l30.4-17.2c0 0-3.8-6.2-5.3-10-1.6-3.8-2-8-2-8 0 0 13.1-10.5 16-21.4 2.9-10.9 5.3-23.5-8-34.7-13.4-11.1-28.7-7.5-38-6.7-9.4 0.9-16.3 7.3-19.7 14.2-3.3 6.9-3.7 11.7-3.3 14.5 0.4 2.9 2 4.9 1.3 7.8-0.6 2.8-9.6 13.5-6.9 15.7 2.7 2.2 5.9 0 5.9 1.8 0 3.1-2.2 2.3-1.5 3.8 0.9 2.2 3.7 2.3 3.7 2.3 0 0-4.1 0.4-2.2 3.6 1.5 2.6 2.6 5.3 2.6 9.8 0 4.4 7.3 3.4 8.4 2.7 2.7-1.4 8.6-2.2 11.4 1.2 3 3.8 3.3 7.6 4.7 12.5 1.3 4.8 2.5 8.1 2.5 8.1z"/>
</svg>