<svg version="1.2" xmlns="http://www.w3.org/2000/svg" viewBox="0 0 200 200" width="200" height="200">
	<title>Novo Projeto</title>
	<style>
		.s0 { fill: #d28125 } 
		.s1 { fill: #ffda6f } 
		.s2 { fill: #d58b28 } 
		.s3 { fill: #ffffff } 
		.s4 { fill: #e2a13b } 
		.s5 { fill: #a35201 } 
	</style>
	<path id="Camada 1" class="s0" d="m99.5 196.9c-51.1 0-92.4-41.3-92.4-92.4 0-51.1 41.3-92.4 92.4-92.4 51.1 0 92.4 41.3 92.4 92.4 0 51.1-41.3 92.4-92.4 92.4z"/>
	<path id="Camada 1 copy" class="s1" d="m99.5 187.9c-51.1 0-92.4-41.3-92.4-92.4 0-51.1 41.3-92.4 92.4-92.4 51.1 0 92.4 41.3 92.4 92.4 0 51.1-41.3 92.4-92.4 92.4z"/>
	<path id="Camada 1 copy 2" class="s2" d="m99.5 163.8c-39.1 0-70.7-31.6-70.7-70.7 0-39.1 31.6-70.7 70.7-70.7 39.1 0 70.7 31.6 70.7 70.7 0 39.1-31.6 70.7-70.7 70.7z"/>
	<path id="Camada 1 copy 3" class="s3" d="m99.5 168.6c-39.1 0-70.7-31.6-70.7-70.7 0-39.1 31.6-70.7 70.7-70.7 39.1 0 70.7 31.6 70.7 70.7 0 39.1-31.6 70.7-70.7 70.7z"/>
	<path id="Camada 1 copy 4" class="s4" d="m99.5 167.4c-39.1 0-70.7-31.6-70.7-70.7 0-39.1 31.6-70.7 70.7-70.7 39.1 0 70.7 31.6 70.7 70.7 0 39.1-31.6 70.7-70.7 70.7z"/>
	<path id="Camada 2" class="s5" d="m54.3 112.6c4.2 0 4.1-4.1 4.6-7.3 0.6-3.2 3.6-6.1 7.4-6 3.7 0.1 10.1 2.8 20 12 9.9 9.2 23.8 13.8 33.9 8.9 10.1-4.8 21.3-16.8 20.1-30.1-1.4-16-17.7-22-27.4-17-9.8 5.1-11.9 12.2-9.9 17.5 2 5.3 7.7 9.2 10.7 5.4 2.9-3.9-3.2-7.4-2.3-10.6 0.9-3.2 7.5-10.3 15.7-3.1 8.3 7.2 3.9 25-6.4 28.2-10.2 3.2-16 4.7-27.6-4.5-11.6-9.3-20.6-18.3-32.7-13.8-12.1 4.5-13.6 20.5-6.1 20.4z"/>
</svg>