<svg version="1.2" xmlns="http://www.w3.org/2000/svg" viewBox="0 0 707 562" width="707" height="562">
	<title>507311-PIJUKT-398-ai</title>
	<defs>
		<clipPath clipPathUnits="userSpaceOnUse" id="cp1">
			<path d="m349.22 191.48c-7.02 10.16-56.13-0.01-146.03-57.71-89.9-57.69-122.32-70.06-133.78-69.35-11.47 0.72-17.8 17.38-15.09 25.94-11.41-8.02-22.11-13.36-28.05-12.44-5.95 0.91-22.46 16.13-21.27 26.42 1.19 10.29 15.41 19.77 15.41 19.77 0 0-24.35 11.06-18.6 33.22 3.46 13.34 40.23 42.69 40.23 42.69 0 0-21.34 7.54-18.15 23.71 3.19 16.17 114.4 111.27 151.35 143.88 36.94 32.62 116.86 63.11 137.48 52.55 80.06 94.31 103.56 121.21 103.56 121.21l112.08-118.81-94.67-83.58c0 0 6.99-124.28-1.6-148.3-8.58-24.01-66.1-89.17-53.73-118.31-0.92-23.4-28.37-20.99-42.02-0.11-29.39 44.92 21.31 107.01 12.88 119.22z"/>
		</clipPath>
		<clipPath clipPathUnits="userSpaceOnUse" id="cp2">
			<path d="m492.16 346.34c0 0-50.02 104.69-157.7 139.57 34.35 81.08 68.14 199.65 68.14 199.65l73.09 114.4 234.87-233.12c0 0-82.3-108.81-218.4-220.5z"/>
		</clipPath>
	</defs>
	<style>
		.s0 { fill: #8146ca } 
		.s1 { fill: #f9e5d2 } 
		.s2 { opacity: .2;mix-blend-mode: multiply;fill: #ff7f58 } 
		.s3 { fill: #fccfa5 } 
		.s4 { fill: #ffffd8 } 
		.s5 { fill: #a74fca } 
		.s6 { fill: #fcc75d } 
	</style>
	<g id="OBJECTS">
		<g id="&lt;Group&gt;">
			<path id="&lt;Path&gt;" class="s0" d="m334.5 485.9c0 0 19.4-31.3 67.8-69.2 48.4-37.8 89.9-70.4 89.9-70.4l-1.6 72.4-124.6 64.6z"/>
			<path id="&lt;Path&gt;" class="s1" d="m321.8 453c0 0 23.5-35.3 71.9-73.1 48.4-37.8 64.3-44.1 64.3-44.1l25.5 63.3-124.6 64.5z"/>
			<g id="&lt;Clip Group&gt;" clip-path="url(#cp1)">
				<path id="&lt;Path&gt;" class="s2" d="m29.7 194.3l12.3 5.7c0 0 60.8 55.9 87.1 73.9-1.7 4.9-101-69.8-101-69.8z"/>
				<path id="&lt;Path&gt;" class="s2" d="m9.8 118.9l10.6 5.2c0 0 37 32.8 53.9 44.7 17 11.9 70.1 64.6 84.3 71-12.4 2.3-76.5-55.9-88.9-66-12.3-10-59.5-46.2-64.5-42.1-0.9-13.3 4.6-12.8 4.6-12.8z"/>
				<path id="&lt;Path&gt;" class="s2" d="m47.3 78.1l1 1.7 6 10.6c0 0 45.7 36.3 60.8 43.6 16.9 14.7 59.9 58.6 73.7 65.5-19.2-5.5-63.2-42.6-82.9-58.6-19.7-16.1-66.4-47.6-71.9-52.7-5.5-12.8-6.8-14.2-6.8-14.2"/>
				<path id="&lt;Path&gt;" class="s2" d="m276.4 150.5c12.6 14.3 27 26.9 42.8 37.5 5.4 3.6 11.3 6.4 17.6 7.8 14.9 3.4 40.4-1.9 33-32.8-5.9-24.8-38.8-36.1-45.5-65.6-6-26.2-6.5-30.6-3-57.2-17.7 21.2-23.7 49.7-27.1 77.1-0.7 5.5-1.3 11.2 0 16.7 1.2 5.5 4.8 10.7 10.1 12.5"/>
				<path id="&lt;Path&gt;" class="s2" d="m109.6 318.7c14.6 20.1 34.7 35.7 56.5 47.8 53.6 29.8 118.2 38.5 178.2 25.5 59.9-12.9 114.8-47.1 154-94.3 1.2 14.8 2.3 29.6 1 44.3-3.4 35.9-22 69.4-47.9 94.5-42.2 40.9-104 59.9-162.1 51.6-58.1-8.4-111.5-43.4-143.9-92.3"/>
				<path id="&lt;Path&gt;" class="s3" d="m349.2 191.5c-7 10.1-56.1 0-146-57.7-89.9-57.7-122.3-70.1-133.8-69.4-11.5 0.7-17.8 17.4-15.1 26-11.4-8.1-22.1-13.4-28-12.5-6 0.9-22.5 16.1-21.3 26.4 1.2 10.3 15.4 19.8 15.4 19.8 0 0-24.3 11.1-18.6 33.2 3.5 13.4 40.2 42.7 40.2 42.7 0 0-21.3 7.6-18.1 23.7 3.2 16.2 114.4 111.3 151.3 143.9 37 32.6 116.9 63.1 137.5 52.6 80.1 94.3 103.6 121.2 103.6 121.2l112.1-118.8-94.7-83.6c0 0 7-124.3-1.6-148.3-8.6-24-66.1-89.2-53.7-118.3-1-23.4-28.4-21-42.1-0.1-29.4 44.9 21.4 107 12.9 119.2z"/>
			</g>
			<path id="&lt;Path&gt;" class="s4" d="m458 335.8c0 0-76.9 100.1-136.2 117.2 28.1 33.1 60.3 83 60.3 83l136.7-147.4z"/>
			<g id="&lt;Clip Group&gt;" clip-path="url(#cp2)">
				<path id="&lt;Path&gt;" class="s2" d="m361.9 317.9l415.1 423.1-377.6 123.2-224.9-342.7z"/>
				<path id="&lt;Path&gt;" class="s5" d="m492.2 346.3c0 0-50.1 104.7-157.7 139.6 34.3 81.1 68.1 199.7 68.1 199.7l73.1 114.4 234.9-233.2c0 0-82.3-108.8-218.4-220.5z"/>
			</g>
			<path id="&lt;Path&gt;" class="s2" d="m336.3 222.2c0 0-80.6 14.6-66 124.5-12.8-23.8-24.7-133.7 66-124.5z"/>
		</g>
		<g id="linhas">
			<path id="&lt;Path&gt;" class="s6" d="m88.5 418c-2.2 0-4-1.8-4-4v-88c0-2.2 1.8-4 4-4 2.2 0 4 1.8 4 4v88c0 2.2-1.8 4-4 4z"/>
			<path id="&lt;Path&gt;" class="s6" d="m36.5 304c-2.2 0-4-1.8-4-4v-36c0-2.2 1.8-4 4-4 2.2 0 4 1.8 4 4v36c0 2.2-1.8 4-4 4z"/>
			<path id="&lt;Path&gt;" class="s6" d="m202.5 100c-2.2 0-4-1.8-4-4v-54c0-2.2 1.8-4 4-4 2.2 0 4 1.8 4 4v54c0 2.2-1.8 4-4 4z"/>
			<path id="&lt;Path&gt;" class="s6" d="m134.5 496c-2.2 0-4-1.8-4-4v-126c0-2.2 1.8-4 4-4 2.2 0 4 1.8 4 4v126c0 2.2-1.8 4-4 4z"/>
			<path id="&lt;Path&gt;" class="s6" d="m262.5 42c-2.2 0-4-1.8-4-4v-34c0-2.2 1.8-4 4-4 2.2 0 4 1.8 4 4v34c0 2.2-1.8 4-4 4z"/>
			<path id="&lt;Path&gt;" class="s6" d="m280.5 128c-2.2 0-4-1.8-4-4v-34c0-2.2 1.8-4 4-4 2.2 0 4 1.8 4 4v34c0 2.2-1.8 4-4 4z"/>
		</g>
	</g>
</svg>