<svg version="1.2" xmlns="http://www.w3.org/2000/svg" viewBox="0 0 200 200" width="200" height="200">
	<title>Novo Projeto</title>
	<style>
		.s0 { fill: #d28125 } 
		.s1 { fill: #ffda6f } 
		.s2 { fill: #d58b28 } 
		.s3 { fill: #ffffff } 
		.s4 { fill: #e2a13b } 
	</style>
	<path id="Camada 1" class="s0" d="m99.5 196.9c-51.1 0-92.4-41.3-92.4-92.4 0-51.1 41.3-92.4 92.4-92.4 51.1 0 92.4 41.3 92.4 92.4 0 51.1-41.3 92.4-92.4 92.4z"/>
	<path id="Camada 1 copy" class="s1" d="m99.5 187.9c-51.1 0-92.4-41.3-92.4-92.4 0-51.1 41.3-92.4 92.4-92.4 51.1 0 92.4 41.3 92.4 92.4 0 51.1-41.3 92.4-92.4 92.4z"/>
	<path id="Camada 1 copy 2" class="s2" d="m99.5 163.8c-39.1 0-70.7-31.6-70.7-70.7 0-39.1 31.6-70.7 70.7-70.7 39.1 0 70.7 31.6 70.7 70.7 0 39.1-31.6 70.7-70.7 70.7z"/>
	<path id="Camada 1 copy 3" class="s3" d="m99.5 168.6c-39.1 0-70.7-31.6-70.7-70.7 0-39.1 31.6-70.7 70.7-70.7 39.1 0 70.7 31.6 70.7 70.7 0 39.1-31.6 70.7-70.7 70.7z"/>
	<path id="Camada 1 copy 4" class="s4" d="m99.5 167.4c-39.1 0-70.7-31.6-70.7-70.7 0-39.1 31.6-70.7 70.7-70.7 39.1 0 70.7 31.6 70.7 70.7 0 39.1-31.6 70.7-70.7 70.7z"/>
</svg>